<svg xmlns="http://www.w3.org/2000/svg" viewBox="0 0 166.29 166.29"><defs><style>.cls-1{fill:#231f20;}</style></defs><title>Asset 5</title><g id="Layer_2" data-name="Layer 2"><g id="Layer_1-2" data-name="Layer 1"><path class="cls-1" d="M83.15,0a83.15,83.15,0,1,0,83.14,83.15A83.15,83.15,0,0,0,83.15,0Zm53.41,59.57v48.09c-.5.12-.33.57-.39.87-1.76,8.83-8.4,14.35-17.4,14.36q-35.25,0-70.51,0a17.41,17.41,0,0,1-6.12-.93,17,17,0,0,1-11.51-16.43c0-9.89,0-19.78,0-29.67,0-5.43-.14-10.87.08-16.29A16.18,16.18,0,0,1,37.53,47a17.28,17.28,0,0,1,9.81-3.4v-.23h72.31a1.7,1.7,0,0,1,0,.22l.34.06c8.64.66,14.64,6.06,16.21,14.55.06.3-.12.73.35.89Z"/><path class="cls-1" d="M131.07,58.53c-1.07-5.93-5.92-9.81-12.24-9.81H48.4c-7.65,0-12.66,5-12.67,12.61q0,21.93,0,43.87a18.29,18.29,0,0,0,.15,2.57,11.87,11.87,0,0,0,12,10c11.86,0,23.71,0,35.57,0h35.1c7.65,0,12.66-5,12.66-12.61q0-21.93,0-43.87A15.33,15.33,0,0,0,131.07,58.53Zm-30.8,26.38q11.24,10.57,22.43,21.19c1.85,1.75,1.67,3.79-.42,4.71-1.3.56-2.26,0-3.16-.88l-10.3-9.77c-4.08-3.87-8.18-7.74-12.24-11.64-.62-.59-1-.63-1.59,0-3,3-6.08,6-9.14,8.94-1.77,1.72-2.95,1.72-4.73,0L72.47,89c-1.12-1.1-1.13-1.12-2.32,0L49.22,108.88c-.46.43-.89.88-1.37,1.29a2.62,2.62,0,0,1-4-.08c-1-1.12-.9-2.53.44-3.8q6.6-6.26,13.21-12.5c3.09-2.93,6.17-5.88,9.31-8.77.7-.64.55-1,0-1.53Q55.74,72.75,44.71,62c-.34-.33-.68-.65-1-1a2.39,2.39,0,0,1-.21-3.45,2.47,2.47,0,0,1,3.74-.29c.92.78,1.77,1.65,2.63,2.5Q66.15,75.54,82.39,91.41c.84.82,1.28.93,2.19,0Q101.67,74.69,118.86,58c.36-.36.75-.69,1.14-1a2.15,2.15,0,0,1,2.62-.19,2.66,2.66,0,0,1,1.52,2.33,2.88,2.88,0,0,1-1.23,2.17q-8.82,8.61-17.64,17.21c-1.68,1.64-3.33,3.31-5,4.91C99.58,84.05,99.7,84.37,100.27,84.91Z"/></g></g></svg>