<svg xmlns="http://www.w3.org/2000/svg" viewBox="0 0 166.29 166.29"><defs><style>.cls-1{fill:#231f20;}</style></defs><title>Asset 3</title><g id="Layer_2" data-name="Layer 2"><g id="Layer_1-2" data-name="Layer 1"><path class="cls-1" d="M83.15,0a83.15,83.15,0,1,0,83.14,83.15A83.15,83.15,0,0,0,83.15,0Zm24.11,50.88h-.09l-.09,0c-.26,1.25-.88,1.74-2.26,1.77-3.37.06-6.75-.14-10.12.14a6.37,6.37,0,0,0-3.45,1.11c-1.57,1.17-1.84,2.92-1.88,4.68-.06,3.25,0,6.5-.05,9.75,0,.75.22.88.92.88,4.54,0,9.08,0,13.62,0,2,0,2.68.69,2.69,2.69q0,7.59,0,15.2c0,1.93-.7,2.6-2.65,2.61-4.51,0-9,0-13.53,0-.88,0-1,.25-1,1.08q0,19.72,0,39.47a6.29,6.29,0,0,1,0,1,2,2,0,0,1-2.06,1.94q-8.46,0-16.93,0a1.93,1.93,0,0,1-2-1.93c0-.36,0-.72,0-1.07q0-19.74,0-39.48c0-.76-.2-1-1-1-3.82,0-7.65,0-11.48,0-1.86,0-2.62-.73-2.62-2.56q0-7.71,0-15.4c0-1.78.79-2.53,2.56-2.54,3.86,0,7.72,0,11.58,0,.7,0,.94-.13.93-.89,0-3.28,0-6.56,0-9.85a30,30,0,0,1,1.43-10,21.19,21.19,0,0,1,15.8-14.45,26.41,26.41,0,0,0,3.64-.75h16.35c.84.38,1.56.86,1.6,1.91l.09,0,.06.08Z"/></g></g></svg>