<svg xmlns="http://www.w3.org/2000/svg" viewBox="0 0 166.29 166.29"><defs><style>.cls-1{fill:#231f20;}</style></defs><title>Asset 4</title><g id="Layer_2" data-name="Layer 2"><g id="Layer_1-2" data-name="Layer 1"><path class="cls-1" d="M133.34,132.12h0c0-.16,0-.32,0-.47C133.32,131.8,133.33,132,133.34,132.12Z"/><path class="cls-1" d="M88.91,132.72H74.46a.27.27,0,0,0,0,.09.27.27,0,0,1,0-.09Z"/><path class="cls-1" d="M83.15,0a83.15,83.15,0,1,0,83.14,83.15A83.15,83.15,0,0,0,83.15,0ZM55.3,132.81H35.36a.85.85,0,0,1-.56-1c0-2.25,0-4.51,0-6.76v-58c0-.25,0-.5,0-.74a.39.39,0,0,1,.41-.41c.21,0,.41,0,.61,0h7.58c3,0,6,0,8.93,0l2.34,0c1,0,1.14.17,1.14,1.13q0,11.73,0,23.45v36.06c0,1.64,0,3.29,0,4.94,0,.11,0,.23,0,.34A.89.89,0,0,1,55.3,132.81ZM54,53.39A11.56,11.56,0,0,1,46.82,57a12.05,12.05,0,0,1-13.45-9.72c0-.25-.07-.51-.11-.77a1,1,0,0,0-.16-.53V44a1.64,1.64,0,0,0,.16-.66A11.95,11.95,0,0,1,44.37,32.84v-.08h1.82s0,.06,0,.08A12,12,0,0,1,57.3,43.26,11.81,11.81,0,0,1,54,53.39Zm79.41,48.73v30.69H113a.86.86,0,0,1-.6-1v-.35c0-3.48,0-7,0-10.45q0-12.19,0-24.4a25.85,25.85,0,0,0-.34-4.48,15.74,15.74,0,0,0-1.68-5,8,8,0,0,0-5.29-4,15.19,15.19,0,0,0-6.54-.08,9.58,9.58,0,0,0-7.06,5.32A18.24,18.24,0,0,0,89.81,94a39.52,39.52,0,0,0-.32,5.44q0,15.93,0,31.86c0,.3,0,.61,0,.91a.46.46,0,0,1-.43.5.24.24,0,0,0,0,.08H69.08a.9.9,0,0,1-.6-1c0-.35,0-.7,0-1V110.36q0-10.81,0-21.63t0-21.63a2.21,2.21,0,0,1,.06-.68A.54.54,0,0,1,69,66a2.22,2.22,0,0,1,.51-.06c1.88,0,3.76,0,5.64,0H84.1l3.42,0A3,3,0,0,1,88,66c.4.06.54.21.56.63,0,.27,0,.55,0,.82,0,2.39,0,4.77,0,7.15,0,.06,0,.12.05.18a1.4,1.4,0,0,0,.3-.39,22.11,22.11,0,0,1,15-9.68,30.21,30.21,0,0,1,5.78-.4,30.53,30.53,0,0,1,10,1.84,18.08,18.08,0,0,1,10,9.05,30.74,30.74,0,0,1,2.44,7.1,36.19,36.19,0,0,1,.8,6.31q.16,3.34.3,6.71c0,1.09,0,2.19,0,3.29h.08Z"/></g></g></svg>