<?xml version="1.0" encoding="UTF-8"?>
<svg xmlns="http://www.w3.org/2000/svg" xmlns:xlink="http://www.w3.org/1999/xlink" id="Layer_1" data-name="Layer 1" viewBox="0 0 106.88 41.03">
  <defs>
    <style>.cls-1{fill:url(#linear-gradient);}.cls-2{fill:url(#linear-gradient-2);}.cls-3{isolation:isolate;}.cls-4{fill:#1d3240;}</style>
    <linearGradient id="linear-gradient" x1="-439.67" y1="-713.63" x2="-438.91" y2="-711.9" gradientTransform="translate(7362.44 24435.09) rotate(45) scale(51 17)" gradientUnits="userSpaceOnUse">
      <stop offset="0" stop-color="#00baff"></stop>
      <stop offset="1" stop-color="#ce00ff"></stop>
    </linearGradient>
    <linearGradient id="linear-gradient-2" x1="-460.4" y1="-671.37" x2="-459.38" y2="-671.39" gradientTransform="translate(24743.55 -8489.9) rotate(-45) scale(51 17)" gradientUnits="userSpaceOnUse">
      <stop offset="0" stop-color="#ee0ce9"></stop>
      <stop offset="1" stop-color="#fed000"></stop>
    </linearGradient>
  </defs>
  <title>logo1</title>
  <g id="Group_15" data-name="Group 15">
    <path id="Rectangle_21" data-name="Rectangle 21" class="cls-1" d="M82.5,6l24,24a8.51,8.51,0,0,1,0,12h0a8.51,8.51,0,0,1-12,0l-24-24a8.51,8.51,0,0,1,0-12h0A8.33,8.33,0,0,1,82.5,6Z" transform="translate(-2.1 -3.49)"></path>
    <path id="Rectangle_22" data-name="Rectangle 22" class="cls-2" d="M70.5,30l24-24a8.51,8.51,0,0,1,12,0h0a8.51,8.51,0,0,1,0,12l-24,24a8.51,8.51,0,0,1-12,0h0A8.33,8.33,0,0,1,70.5,30Z" transform="translate(-2.1 -3.49)"></path>
    <g class="cls-3">
      <path class="cls-4" d="M6.3,19.24A3.61,3.61,0,0,0,5.2,22v1.4h7.3V26H5.2v6.4H2.1V21.94a6.25,6.25,0,0,1,2-4.8,7.62,7.62,0,0,1,5.4-1.7,11.15,11.15,0,0,1,2.7.3,7.26,7.26,0,0,1,2.2.9l-1,2.5a6.2,6.2,0,0,0-3.7-1A5.51,5.51,0,0,0,6.3,19.24Z" transform="translate(-2.1 -3.49)"></path>
      <path class="cls-4" d="M23.1,19.54v2.9c-.3,0-.5-.1-.7-.1a3.34,3.34,0,0,0-2.7,1,4,4,0,0,0-1,2.9v6.2h-3V19.64h2.9v1.9C19.4,20.24,20.9,19.54,23.1,19.54Z" transform="translate(-2.1 -3.49)"></path>
      <path class="cls-4" d="M37.5,19.74v12.8H34.6v-1.7a4.89,4.89,0,0,1-1.8,1.4,6,6,0,0,1-2.4.5,7,7,0,0,1-3.3-.8,5.12,5.12,0,0,1-2.3-2.3,6.48,6.48,0,0,1-.8-3.5,7.12,7.12,0,0,1,.8-3.4,6.34,6.34,0,0,1,2.3-2.3,6.22,6.22,0,0,1,3.3-.8,5.87,5.87,0,0,1,2.3.4,4.63,4.63,0,0,1,1.8,1.3v-1.6Zm-4,9.3a4,4,0,0,0,1.1-2.9,4,4,0,0,0-1.1-2.9,3.86,3.86,0,0,0-5.4,0,4,4,0,0,0-1.1,2.9A4,4,0,0,0,28.1,29a3.86,3.86,0,0,0,5.4,0Z" transform="translate(-2.1 -3.49)"></path>
      <path class="cls-4" d="M61,20.94a5.74,5.74,0,0,1,1.4,4.2v7.3h-3v-7a3.56,3.56,0,0,0-.7-2.5,2.58,2.58,0,0,0-2.1-.9,3,3,0,0,0-2.4,1,4.1,4.1,0,0,0-.9,2.8v6.5h-3v-7a3.56,3.56,0,0,0-.7-2.5,2.58,2.58,0,0,0-2.1-.9,3,3,0,0,0-2.4,1,4.2,4.2,0,0,0-.9,2.9v6.5h-3V19.54h2.9v1.6a4.63,4.63,0,0,1,1.8-1.3,6,6,0,0,1,2.4-.5,7.08,7.08,0,0,1,2.6.5,4,4,0,0,1,1.8,1.6,5.26,5.26,0,0,1,2-1.6,6.39,6.39,0,0,1,2.8-.6A7.2,7.2,0,0,1,61,20.94Z" transform="translate(-2.1 -3.49)"></path>
    </g>
  </g>
</svg>
