<?xml version="1.0" encoding="utf-8"?>
<!-- Generator: Adobe Illustrator 24.0.0, SVG Export Plug-In . SVG Version: 6.00 Build 0)  -->
<svg version="1.1" id="Layer_1" xmlns="http://www.w3.org/2000/svg" xmlns:xlink="http://www.w3.org/1999/xlink" x="0px" y="0px"
	 viewBox="0 0 112.5 48.1" style="enable-background:new 0 0 112.5 48.1;" xml:space="preserve">
<style type="text/css">
	.st0{fill:url(#Rectangle_21_1_);}
	.st1{fill:url(#Rectangle_22_1_);}
	.st2{enable-background:new    ;}
	.st3{fill:#1D3240;}
</style>
<g id="Group_15" transform="translate(-41 -723.458)">
	
		<linearGradient id="Rectangle_21_1_" gradientUnits="userSpaceOnUse" x1="-199.2639" y1="1139.7076" x2="-198.5079" y2="1137.9775" gradientTransform="matrix(36.0624 36.0624 12.0208 -12.0208 -6387.8506 21610.7656)">
		<stop  offset="0" style="stop-color:#00BAFF"/>
		<stop  offset="1" style="stop-color:#CE00FF"/>
	</linearGradient>
	<path id="Rectangle_21" class="st0" d="M123.5,729.5l24,24c3.3,3.3,3.3,8.7,0,12l0,0c-3.3,3.3-8.7,3.3-12,0l-24-24
		c-3.3-3.3-3.3-8.7,0-12l0,0C114.8,726.1,120.2,726.1,123.5,729.5z"/>
	
		<linearGradient id="Rectangle_22_1_" gradientUnits="userSpaceOnUse" x1="-209.7079" y1="1118.1577" x2="-208.6909" y2="1118.1808" gradientTransform="matrix(36.0624 -36.0624 -12.0208 -12.0208 21114.7656 6644.8506)">
		<stop  offset="0" style="stop-color:#EE0CE9"/>
		<stop  offset="1" style="stop-color:#FED000"/>
	</linearGradient>
	<path id="Rectangle_22" class="st1" d="M111.5,753.5l24-24c3.3-3.3,8.7-3.3,12,0l0,0c3.3,3.3,3.3,8.7,0,12l-24,24
		c-3.3,3.3-8.7,3.3-12,0l0,0C108.1,762.2,108.1,756.8,111.5,753.5z"/>
	<g class="st2">
		<path class="st3" d="M47.3,742.7c-0.7,0.6-1.1,1.6-1.1,2.8v1.4h7.3v2.6h-7.3v6.4h-3.1v-10.5c0-2,0.7-3.6,2-4.8s3.1-1.7,5.4-1.7
			c1,0,1.9,0.1,2.7,0.3c0.8,0.2,1.6,0.5,2.2,0.9l-1,2.5c-1-0.7-2.2-1-3.7-1C49.2,741.7,48.1,742,47.3,742.7z"/>
		<path class="st3" d="M64.1,743v2.9c-0.3,0-0.5-0.1-0.7-0.1c-1.2,0-2.1,0.3-2.7,1c-0.7,0.7-1,1.7-1,2.9v6.2h-3v-12.8h2.9v1.9
			C60.4,743.7,61.9,743,64.1,743z"/>
		<path class="st3" d="M78.5,743.2V756h-2.9v-1.7c-0.5,0.6-1.1,1.1-1.8,1.4c-0.7,0.3-1.5,0.5-2.4,0.5c-1.2,0-2.4-0.3-3.3-0.8
			c-1-0.5-1.8-1.3-2.3-2.3c-0.6-1-0.8-2.1-0.8-3.5c0-1.3,0.3-2.5,0.8-3.4c0.6-1,1.3-1.7,2.3-2.3s2.1-0.8,3.3-0.8
			c0.8,0,1.6,0.1,2.3,0.4c0.7,0.3,1.3,0.7,1.8,1.3v-1.6H78.5z M74.5,752.5c0.7-0.7,1.1-1.7,1.1-2.9s-0.4-2.2-1.1-2.9
			c-0.7-0.7-1.6-1.1-2.7-1.1s-2,0.4-2.7,1.1c-0.7,0.7-1.1,1.7-1.1,2.9s0.4,2.2,1.1,2.9s1.6,1.1,2.7,1.1S73.8,753.2,74.5,752.5z"/>
		<path class="st3" d="M102,744.4c0.9,0.9,1.4,2.3,1.4,4.2v7.3h-3v-7c0-1.1-0.2-2-0.7-2.5c-0.5-0.6-1.2-0.9-2.1-0.9
			c-1,0-1.8,0.3-2.4,1c-0.6,0.7-0.9,1.6-0.9,2.8v6.5h-3v-7c0-1.1-0.2-2-0.7-2.5c-0.5-0.6-1.2-0.9-2.1-0.9c-1,0-1.8,0.3-2.4,1
			c-0.6,0.7-0.9,1.6-0.9,2.9v6.5h-3v-12.8h2.9v1.6c0.5-0.6,1.1-1,1.8-1.3s1.5-0.5,2.4-0.5c1,0,1.8,0.2,2.6,0.5s1.3,0.9,1.8,1.6
			c0.5-0.7,1.2-1.2,2-1.6c0.8-0.4,1.8-0.6,2.8-0.6C99.8,743,101.1,743.5,102,744.4z"/>
	</g>
</g>
</svg>
