<svg xmlns="http://www.w3.org/2000/svg" viewBox="0 0 166.29 166.29"><defs><style>.cls-1{fill:#231f20;}</style></defs><title>Asset 2</title><g id="Layer_2" data-name="Layer 2"><g id="Layer_2-2" data-name="Layer 2"><path class="cls-1" d="M83.15,0a83.15,83.15,0,1,0,83.14,83.15A83.15,83.15,0,0,0,83.15,0Zm40.68,76.27v1.9c-.18.12-.11.32-.14.48a12.16,12.16,0,0,1-3.28,6.83,12.63,12.63,0,0,1-9.73,3.91c-11.48-.15-23-.23-34.44-.36-.54,0-.68.12-.67.66,0,2.66,0,5.32,0,8a30,30,0,0,0,.17,3.54,8.17,8.17,0,0,0,8.63,7.61h25.3a15.55,15.55,0,0,1,2.73.22,12.37,12.37,0,0,1-2.48,24.52h-27c-.3,0-.6,0-.9,0a37.14,37.14,0,0,1-9-1.88,31.77,31.77,0,0,1-17.18-13.71,35.45,35.45,0,0,1-5.06-18.72q0-23.82,0-47.62c0-2,0-4,0-6a12.39,12.39,0,0,1,8.5-11.35c.82-.26,1.67-.33,2.48-.61h2.74c.07.15.22.09.33.11a11.66,11.66,0,0,1,4.33,1.44,12.13,12.13,0,0,1,6.36,11.06c0,5.79,0,11.59,0,17.38,0,.5.1.65.63.66q17.6.14,35.18.31a12.39,12.39,0,0,1,12.19,10,4.22,4.22,0,0,0,.26,1.26Z"/></g></g></svg>