<svg xmlns="http://www.w3.org/2000/svg" xmlns:xlink="http://www.w3.org/1999/xlink" viewBox="0 0 106.88 41.03"><defs><style>.cls-1{fill:url(#linear-gradient);}.cls-2{fill:url(#linear-gradient-2);}.cls-3{isolation:isolate;}.cls-4{fill:#1d3240;}</style><linearGradient id="linear-gradient" x1="-441.77" y1="-717.13" x2="-441.01" y2="-715.4" gradientTransform="translate(7394.1 24549.3) rotate(45) scale(51 17)" gradientUnits="userSpaceOnUse"><stop offset="0" stop-color="#00baff"/><stop offset="1" stop-color="#ce00ff"/></linearGradient><linearGradient id="linear-gradient-2" x1="-462.5" y1="-674.86" x2="-461.48" y2="-674.89" gradientTransform="translate(24859.15 -8527.15) rotate(-45) scale(51 17)" gradientUnits="userSpaceOnUse"><stop offset="0" stop-color="#ee0ce9"/><stop offset="1" stop-color="#fed000"/></linearGradient></defs><title>loggAsset 1</title><g id="Layer_2" data-name="Layer 2"><g id="Layer_1-2" data-name="Layer 1"><g id="Group_15" data-name="Group 15"><path id="Rectangle_21" data-name="Rectangle 21" class="cls-1" d="M80.4,2.55l24,24a8.51,8.51,0,0,1,0,12h0a8.51,8.51,0,0,1-12,0l-24-24a8.51,8.51,0,0,1,0-12h0A8.33,8.33,0,0,1,80.4,2.55Z"/><path id="Rectangle_22" data-name="Rectangle 22" class="cls-2" d="M68.4,26.55l24-24a8.51,8.51,0,0,1,12,0h0a8.51,8.51,0,0,1,0,12l-24,24a8.51,8.51,0,0,1-12,0h0A8.33,8.33,0,0,1,68.4,26.55Z"/><g class="cls-3"><path class="cls-4" d="M4.2,15.75a3.61,3.61,0,0,0-1.1,2.8V20h7.3v2.6H3.1V29H0V18.45a6.25,6.25,0,0,1,2-4.8A7.62,7.62,0,0,1,7.4,12a11.15,11.15,0,0,1,2.7.3,7.26,7.26,0,0,1,2.2.9l-1,2.5a6.2,6.2,0,0,0-3.7-1A5.51,5.51,0,0,0,4.2,15.75Z"/><path class="cls-4" d="M21,16.05V19c-.3,0-.5-.1-.7-.1a3.34,3.34,0,0,0-2.7,1,4,4,0,0,0-1,2.9V29h-3V16.15h2.9v1.9C17.3,16.75,18.8,16.05,21,16.05Z"/><path class="cls-4" d="M35.4,16.25v12.8H32.5v-1.7a4.89,4.89,0,0,1-1.8,1.4,6,6,0,0,1-2.4.5,7,7,0,0,1-3.3-.8,5.12,5.12,0,0,1-2.3-2.3,6.48,6.48,0,0,1-.8-3.5,7.12,7.12,0,0,1,.8-3.4A6.34,6.34,0,0,1,25,17a6.22,6.22,0,0,1,3.3-.8,5.87,5.87,0,0,1,2.3.4,4.63,4.63,0,0,1,1.8,1.3v-1.6Zm-4,9.3a4,4,0,0,0,1.1-2.9,4,4,0,0,0-1.1-2.9,3.86,3.86,0,0,0-5.4,0,4,4,0,0,0-1.1,2.9,4,4,0,0,0,1.1,2.9,3.86,3.86,0,0,0,5.4,0Z"/><path class="cls-4" d="M58.9,17.45a5.74,5.74,0,0,1,1.4,4.2V29h-3V22a3.56,3.56,0,0,0-.7-2.5,2.58,2.58,0,0,0-2.1-.9,3,3,0,0,0-2.4,1,4.1,4.1,0,0,0-.9,2.8v6.5h-3v-7a3.56,3.56,0,0,0-.7-2.5,2.58,2.58,0,0,0-2.1-.9,3,3,0,0,0-2.4,1,4.2,4.2,0,0,0-.9,2.9v6.5h-3V16.05H42v1.6a4.63,4.63,0,0,1,1.8-1.3,6,6,0,0,1,2.4-.5,7.08,7.08,0,0,1,2.6.5A4,4,0,0,1,50.6,18a5.26,5.26,0,0,1,2-1.6,6.39,6.39,0,0,1,2.8-.6A7.2,7.2,0,0,1,58.9,17.45Z"/></g></g></g></g></svg>