<svg xmlns="http://www.w3.org/2000/svg" xmlns:xlink="http://www.w3.org/1999/xlink" viewBox="0 0 280.74 407.09"><defs><style>.cls-1{fill:url(#radial-gradient);}.cls-2{fill:#231f20;}.cls-3{fill:#414042;}.cls-4{fill:url(#linear-gradient);}.cls-5{fill:url(#linear-gradient-2);}</style><radialGradient id="radial-gradient" cx="125.45" cy="338.86" r="122.68" gradientTransform="matrix(1.13, -0.02, 0, 0.42, -3.22, 208.88)" gradientUnits="userSpaceOnUse"><stop offset="0.01" stop-color="#fff" stop-opacity="0.5"/><stop offset="0.98" stop-opacity="0"/></radialGradient><linearGradient id="linear-gradient" x1="32.19" y1="192.96" x2="215.77" y2="192.96" gradientUnits="userSpaceOnUse"><stop offset="0" stop-color="#f7941d"/><stop offset="1" stop-color="#ec008c"/></linearGradient><linearGradient id="linear-gradient-2" x1="127.45" y1="195.91" x2="211.05" y2="173.73" gradientUnits="userSpaceOnUse"><stop offset="0" stop-color="#fff" stop-opacity="0.65"/><stop offset="0.97" stop-color="#fff" stop-opacity="0"/></linearGradient></defs><title>Asset 1</title><g id="Layer_2" data-name="Layer 2"><g id="Layer_1-2" data-name="Layer 1"><ellipse class="cls-1" cx="140.37" cy="348.77" rx="140.37" ry="58.33"/><path class="cls-2" d="M161.66,385.92l-115-21.46c-6.13,0-11.15-6.93-11.15-15.41L192.31,18.73C192.31,10.25,209.5,0,215.63,0h-2.29c11.56-.7,20.53,8.88,18.86,23l-50,349.63C182.24,381.11,167.79,385.92,161.66,385.92Z"/><path class="cls-3" d="M161.66,385.92,37.9,364.39c-6.13,0-11.14-6.94-11.14-15.42L77.31,36.72c0-8.47,5-15.41,11.15-15.41L213.34,0c6.13,0,11.14,6.93,11.14,15.41L172.81,370.5C172.81,379,167.79,385.92,161.66,385.92Z"/><path class="cls-4" d="M154.69,378.19,43,358.93c-5.93,0-10.77-6.7-10.77-14.89L82,42.25c0-8.19,4.85-14.89,10.77-14.89L204.48,7.9c10.77-1.08,12.34,2.78,10.77,14.89l-49.79,340.5C165.46,371.49,160.61,378.19,154.69,378.19Z"/><path class="cls-5" d="M204.48,7.91,92.75,27.37C86.83,27.37,82,34.08,82,42.27L79.64,56.48l85.8,307.37c0-.18,0-.36,0-.54l49.79-340.5C216.82,10.7,215.25,6.84,204.48,7.91Z"/></g></g></svg>